HIERARCHY
ROOT Hips
{
	OFFSET 0.000000 0.000000 0.000000 
	CHANNELS 6 Xposition Yposition Zposition Zrotation Yrotation Xrotation
	JOINT LeftUpLeg
	{
		OFFSET 1.363060 -1.794630 0.839290 
		CHANNELS 3 Zrotation Yrotation Xrotation
		JOINT LeftLeg
		{
			OFFSET 2.448110 -6.726130 0.000000 
			CHANNELS 3 Zrotation Yrotation Xrotation
			JOINT LeftFoot
			{
				OFFSET 2.562200 -7.039590 0.000000 
				CHANNELS 3 Zrotation Yrotation Xrotation
				JOINT LeftToeBase
				{
					OFFSET 0.157640 -0.433110 2.322550 
					CHANNELS 3 Zrotation Yrotation Xrotation
					End Site
					{
						OFFSET 0.000000 0.000000 0.000000 
					}
				}
			}
		}
	}
	JOINT RightUpLeg
	{
		OFFSET -1.305520 -1.794630 0.839290 
		CHANNELS 3 Zrotation Yrotation Xrotation
		JOINT RightLeg
		{
			OFFSET -2.542530 -6.985550 0.000000 
			CHANNELS 3 Zrotation Yrotation Xrotation
			JOINT RightFoot
			{
				OFFSET -2.568260 -7.056230 0.000000 
				CHANNELS 3 Zrotation Yrotation Xrotation
				JOINT RightToeBase
				{
					OFFSET -0.164730 -0.452590 2.363150 
					CHANNELS 3 Zrotation Yrotation Xrotation
					End Site
					{
						OFFSET 0.000000 0.000000 0.000000 
					}
				}
			}
		}
	}
	JOINT Spine
	{
		OFFSET 0.028270 2.035590 -0.193380 
		CHANNELS 3 Zrotation Yrotation Xrotation
		JOINT Spine1
		{
			OFFSET 0.056720 2.048850 -0.042750 
			CHANNELS 3 Zrotation Yrotation Xrotation
			JOINT Neck1
			{
				OFFSET -0.054170 1.746240 0.172020 
				CHANNELS 3 Zrotation Yrotation Xrotation
				JOINT Head
				{
					OFFSET 0.104070 1.761360 -0.123970 
					CHANNELS 3 Zrotation Yrotation Xrotation
					End Site
					{
						OFFSET 0.000000 0.000000 0.000000 
					}
				}
			}
			JOINT LeftArm
			{
				OFFSET 3.362410 1.200890 -0.311210 
				CHANNELS 3 Zrotation Yrotation Xrotation
				JOINT LeftForeArm
				{
					OFFSET 4.983000 -0.000000 -0.000000 
					CHANNELS 3 Zrotation Yrotation Xrotation
					JOINT LeftHand
					{
						OFFSET 3.483560 -0.000000 -0.000000 
						CHANNELS 3 Zrotation Yrotation Xrotation
						JOINT LeftHandIndex1
						{
							OFFSET 0.715260 -0.000000 -0.000000 
							CHANNELS 3 Zrotation Yrotation Xrotation
							End Site
							{
								OFFSET 0.000000 0.000000 0.000000 
							}
						}
					}
				}
			}
			JOINT RightArm
			{
				OFFSET -3.136600 1.374050 -0.404650 
				CHANNELS 3 Zrotation Yrotation Xrotation
				JOINT RightForeArm
				{
					OFFSET -5.241900 -0.000000 -0.000000 
					CHANNELS 3 Zrotation Yrotation Xrotation
					JOINT RightHand
					{
						OFFSET -3.444170 -0.000000 -0.000000 
						CHANNELS 3 Zrotation Yrotation Xrotation
						JOINT RightHandIndex1
						{
							OFFSET -0.622530 -0.000000 -0.000000 
							CHANNELS 3 Zrotation Yrotation Xrotation
							End Site
							{
								OFFSET 0.000000 0.000000 0.000000 
							}
						}
					}
				}
			}
		}
	}
}
MOTION
Frames: 15
Frame Time: 0.041667
2.629267 17.597998 6.980788 -12.570084 21.993682 -12.230991 -9.157478 14.088792 -22.900066 5.099707 14.122860 42.899727 1.229075 4.541208 -24.460495 2.689200 10.174100 29.542300 -26.906438 33.510329 -48.548083 -1.977012 -8.836174 25.658173 0.758254 -16.284390 4.623546 -4.280300 -12.524400 37.613300 2.866629 -2.756038 -2.589671 7.558837 -1.815368 -0.918943 -1.957183 -2.131898 15.529024 -3.216600 -0.672400 5.078800 -98.427024 14.584404 23.624259 24.523039 -35.927664 -6.204662 -0.082954 2.095110 -9.624752 -7.125000 0.000000 0.000000 83.949860 -1.782193 40.782640 -79.151061 59.082987 -48.054920 1.561399 -0.749339 14.691637 7.125000 0.000000 0.000000 
2.630962 17.589096 7.063763 -13.473605 23.276360 -13.113382 -8.284806 13.104784 -22.168643 5.197134 14.212220 43.266200 1.250171 4.512748 -24.569151 2.530800 9.893700 28.633000 -25.563934 30.636308 -48.709771 -1.866680 -8.631484 24.899022 0.497331 -13.592856 4.897724 -3.045800 -10.768800 31.504000 3.084898 -2.845460 -2.568840 7.838265 -1.851300 -1.163714 -2.168004 -2.249351 15.321606 -3.262800 -0.766400 5.050500 -98.520939 13.856257 24.045206 24.572744 -36.024515 -6.222962 -0.080787 2.082670 -9.396947 -7.125000 0.000000 0.000000 84.019245 -1.270050 41.096371 -79.013715 59.090683 -47.934058 1.554547 -0.754618 14.673378 7.125000 0.000000 0.000000 
2.626088 17.575956 7.151826 -14.454196 24.468426 -14.155379 -7.303557 12.187877 -21.360915 5.312008 14.314815 43.684302 1.286697 4.417522 -24.719851 2.372300 9.601900 27.697100 -23.036866 26.895664 -49.124352 -1.896510 -8.680669 24.942334 0.190017 -10.089032 5.922272 -1.583500 -7.938600 22.527800 3.317791 -2.855926 -2.505824 8.186810 -1.853805 -1.366557 -2.363797 -2.413535 15.083230 -3.309600 -0.883000 5.005600 -98.639942 13.087384 24.483820 24.611536 -36.121971 -6.244745 -0.075288 2.077065 -9.252359 -7.125000 0.000000 0.000000 84.055557 -0.703128 41.404934 -78.701611 59.094149 -47.665074 1.546151 -0.764571 14.717460 7.125000 0.000000 0.000000 
2.616020 17.560590 7.244657 -15.493483 25.557337 -15.311939 -6.246564 11.356598 -20.501430 5.430261 14.417002 44.100307 1.334052 4.265406 -24.891217 2.213800 9.297800 26.731500 -20.201750 23.148653 -49.841945 -2.045132 -8.965746 25.738003 -0.049027 -6.753245 7.243264 -0.457600 -4.339300 12.033400 3.554742 -2.785128 -2.413311 8.575034 -1.820469 -1.534473 -2.519333 -2.636313 14.864265 -3.350700 -1.024100 4.961900 -98.754476 12.283733 24.984261 24.633664 -36.210907 -6.267552 -0.067414 2.080131 -9.284413 -7.125000 0.000000 0.000000 84.086044 -0.092019 41.686508 -78.147653 59.089166 -47.190473 1.535060 -0.780891 14.891689 7.125000 0.000000 0.000000 
2.601396 17.547132 7.341410 -16.566491 26.583045 -16.508845 -5.163631 10.580616 -19.638279 5.537681 14.506975 44.465291 1.384670 4.076026 -25.051839 2.055300 8.980300 25.733700 -17.772960 20.072856 -50.735100 -2.299208 -9.454979 27.208444 -0.204306 -4.252929 8.594481 -0.014600 -0.780000 2.143700 3.786673 -2.651237 -2.310414 8.988435 -1.758384 -1.662961 -2.594883 -2.931349 14.714013 -3.370500 -1.192900 4.937800 -98.840528 11.435313 25.572496 24.615605 -36.265459 -6.280762 -0.055383 2.090592 -9.522103 -7.125000 0.000000 0.000000 84.148949 0.532769 41.898380 -77.353545 59.071229 -46.512057 1.520316 -0.803043 15.124262 7.125000 0.000000 0.000000 
2.581685 17.539396 7.440705 -17.665299 27.627169 -17.675357 -4.096217 9.805244 -18.839794 5.623874 14.577245 44.746318 1.429791 3.866963 -25.158748 1.894000 8.641700 24.680600 -16.140818 17.958430 -51.648627 -2.655151 -10.112643 29.270054 -0.304829 -2.833929 9.800124 -0.116100 2.197000 -6.050400 4.005463 -2.476455 -2.223141 9.415152 -1.675223 -1.765118 -2.567818 -3.322687 14.665648 -3.366500 -1.398000 4.943600 -98.861203 10.526576 26.296600 24.529911 -36.253671 -6.269521 -0.039915 2.106363 -9.929211 -7.125000 0.000000 0.000000 84.299738 1.097021 41.990439 -76.360276 59.034907 -45.665658 1.502382 -0.829788 15.454848 7.125000 0.000000 0.000000 
2.558054 17.538124 7.541802 -18.741723 28.793462 -18.766497 -3.130420 8.964166 -18.139291 5.684965 14.626038 44.937789 1.464235 3.655354 -25.192747 1.728300 8.275600 23.554200 -15.383835 16.664464 -52.492644 -3.118168 -10.901013 31.837344 -0.390765 -2.107081 10.957568 -0.332400 3.705400 -10.249200 4.197706 -2.290327 -2.165236 9.858955 -1.583387 -1.850164 -2.406564 -3.825235 14.730243 -3.324200 -1.645700 4.985800 -98.813942 9.520311 27.179728 24.347064 -36.142851 -6.215302 -0.020920 2.121082 -10.415686 -7.125000 0.000000 0.000000 84.561215 1.571653 41.919637 -75.201051 58.975542 -44.682358 1.481649 -0.856288 15.851059 7.125000 0.000000 0.000000 
2.529653 17.543317 7.645019 -19.834097 30.197038 -19.777965 -2.273109 7.980752 -17.592731 5.725497 14.658561 45.060708 1.484634 3.433868 -25.121019 1.553200 7.865800 22.307300 -15.375108 15.891968 -53.247497 -3.691817 -11.779737 34.818306 -0.481894 -1.632404 12.170179 -0.420600 4.162500 -11.534200 4.351924 -2.133846 -2.163486 10.281198 -1.496989 -1.969573 -2.070791 -4.454959 14.909842 -3.227900 -1.941400 5.067000 -98.668785 8.408490 28.229958 24.045313 -35.902544 -6.105539 0.001886 2.130689 -10.839504 -7.125000 0.000000 0.000000 84.986073 1.880106 41.658129 -73.978482 58.893118 -43.648156 1.459027 -0.879585 16.291989 7.125000 0.000000 0.000000 
2.496802 17.554126 7.751415 -21.016152 31.913338 -20.767744 -1.489990 6.808816 -17.220431 5.756683 14.684556 45.155145 1.493500 3.178897 -24.936408 1.364100 7.392400 20.883200 -15.862207 15.303842 -53.879577 -4.370890 -12.704425 38.103561 -0.587873 -1.017987 13.535121 -0.352000 3.811800 -10.547900 4.478057 -2.037382 -2.216646 10.691844 -1.429644 -2.122705 -1.558657 -5.212571 15.163532 -3.073100 -2.286900 5.174800 -98.457402 7.154505 29.424548 23.614001 -35.520212 -5.931323 0.025336 2.130149 -11.058120 -7.125000 0.000000 0.000000 85.549218 1.994307 41.174798 -72.787367 58.792603 -42.642148 1.435079 -0.898360 16.716738 7.125000 0.000000 0.000000 
2.460242 17.568750 7.861413 -22.371195 33.962642 -21.777696 -0.735516 5.450689 -17.077579 5.790998 14.713335 45.260660 1.496293 2.847307 -24.632068 1.163600 6.848000 19.265800 -16.645928 14.678213 -54.386581 -5.142744 -13.634058 41.586333 -0.709089 -0.104819 15.089572 -0.198900 2.872200 -7.923100 4.579058 -2.013034 -2.329783 11.059574 -1.384447 -2.320147 -0.866716 -6.098094 15.453076 -2.855600 -2.683400 5.301200 -98.196502 5.747600 30.741991 23.064356 -34.999907 -5.694379 0.043848 2.115895 -10.921211 -7.125000 0.000000 0.000000 86.231239 1.900811 40.483465 -71.710384 58.683488 -41.731974 1.410389 -0.910634 16.988457 7.125000 0.000000 0.000000 
2.421138 17.584646 7.974379 -24.015659 36.283891 -22.920602 0.076522 3.968349 -17.175803 5.838665 14.750767 45.403360 1.494545 2.427985 -24.208544 0.948200 6.201400 17.369800 -17.512474 13.926579 -54.716702 -5.983647 -14.527827 45.144620 -0.842920 1.118490 16.847825 -0.065700 1.653700 -4.549600 4.661695 -2.043563 -2.495906 11.331594 -1.351063 -2.587448 -0.013749 -7.104104 15.734055 -2.581900 -3.129000 5.435300 -97.905808 4.195208 32.149201 22.425708 -34.365538 -5.408522 0.054247 2.086576 -10.330796 -7.125000 0.000000 0.000000 86.995815 1.609281 39.598322 -70.830680 58.578727 -40.982662 1.384578 -0.916915 16.888815 7.125000 0.000000 0.000000 
2.380763 17.602767 8.091266 -26.075348 38.885170 -24.306095 1.002243 2.380408 -17.529663 5.903163 14.796951 45.585158 1.499840 1.851892 -23.678262 0.730800 5.461700 15.230300 -18.332165 12.973910 -54.781645 -6.860579 -15.352752 48.654174 -0.986042 2.570933 18.796173 -0.007200 0.546700 -1.502200 4.744479 -2.162869 -2.705493 11.529547 -1.349841 -2.893946 0.976852 -8.204285 15.975850 -2.255200 -3.614600 5.575300 -97.642529 2.509480 33.579684 21.739454 -33.662245 -5.092446 0.048774 2.043552 -9.251978 -7.125000 0.000000 0.000000 87.769453 1.152054 38.578860 -70.174464 58.486790 -40.412751 1.356516 -0.918428 16.273465 7.125000 0.000000 0.000000 
2.340070 17.623431 8.213134 -28.645740 41.644623 -26.037616 2.095619 0.801567 -18.140459 5.983965 14.848241 45.791949 1.522503 1.076923 -23.080972 0.527400 4.653700 12.923500 -18.998406 11.915806 -54.546094 -7.734576 -16.080434 51.987399 -1.144857 4.126344 20.967023 -0.000400 -0.126300 0.346900 4.840558 -2.337829 -2.943268 11.668493 -1.368967 -3.209379 2.067797 -9.384319 16.149610 -1.891300 -4.136000 5.713300 -97.430216 0.723979 35.012371 21.056332 -32.945152 -4.770461 0.024413 1.988666 -7.702743 -7.125000 0.000000 0.000000 88.479168 0.620353 37.524615 -69.677835 58.406190 -39.972258 1.326493 -0.911370 14.956270 7.125000 0.000000 0.000000 
2.300966 17.645050 8.338816 -31.804751 44.393233 -28.230798 3.388848 -0.643137 -18.978519 6.077385 14.899572 46.001086 1.568143 0.101632 -22.468478 0.352500 3.814600 10.555700 -19.410615 10.880591 -54.000475 -8.564611 -16.693285 55.029870 -1.335955 5.701414 23.425656 -0.001400 -0.240300 0.660400 4.955807 -2.516307 -3.193523 11.732586 -1.385977 -3.531964 3.236833 -10.629284 16.241401 -1.498700 -4.688100 5.848500 -97.294133 -1.123692 36.433912 20.425319 -32.270451 -4.464443 -0.022946 1.926271 -5.768528 -7.125000 0.000000 0.000000 89.065189 0.035394 36.511185 -69.331284 58.337913 -39.654753 1.296606 -0.895385 12.892351 7.125000 0.000000 0.000000 
2.265360 17.666562 8.466724 -35.554114 47.024410 -30.958099 4.829650 -1.895967 -19.987679 6.176798 14.946546 46.192367 1.636386 -1.031861 -21.899749 0.214200 2.979900 8.222800 -19.555810 9.936737 -53.132784 -9.311314 -17.186335 57.685960 -1.585501 7.179671 26.219704 -0.000100 0.077700 -0.213400 5.081550 -2.672726 -3.447290 11.720254 -1.391037 -3.873744 4.463513 -11.919627 16.237218 -1.086700 -5.263100 5.976900 -97.252710 -2.987834 37.822299 19.884172 -31.684484 -4.191916 -0.093111 1.861252 -3.588795 -7.125000 0.000000 0.000000 89.486699 -0.584629 35.581808 -69.046837 58.271072 -39.388085 1.267877 -0.876116 10.314375 7.125000 0.000000 0.000000 
